<svg height="512" viewBox="0 0 64 64" width="512" xmlns="http://www.w3.org/2000/svg"><path d="m61 26h-23.326l6.206-11.526a1 1 0 0 0 -.433-1.369l-14-7a1 1 0 0 0 -1.342.448l-9.723 19.447h-15.382a1 1 0 0 0 -1 1v6a1 1 0 0 0 1 1h2v27a1 1 0 0 0 1 1h52a1 1 0 0 0 1-1v-27h2a1 1 0 0 0 1-1v-6a1 1 0 0 0 -1-1zm-31.553-17.658 12.184 6.092-6.231 11.566h-14.782zm27.553 47.658h-13v2h13v2h-50v-26h50zm3-24h-56v-4h56z"/><path d="m18.063 49.351a1 1 0 0 0 1.874 0l3-8a1 1 0 1 0 -1.874-.7l-2.063 5.501-2.063-5.5a1 1 0 1 0 -1.874.7z"/><path d="m26 50h4a1 1 0 0 0 1-1v-8a1 1 0 0 0 -1-1h-4a1 1 0 0 0 -1 1v8a1 1 0 0 0 1 1zm1-8h2v6h-2z"/><path d="m44 50h4a1 1 0 0 0 0-2h-3v-2h3a1 1 0 0 0 0-2h-3v-2h3a1 1 0 0 0 0-2h-4a1 1 0 0 0 -1 1v8a1 1 0 0 0 1 1z"/><path d="m34 42h2v7a1 1 0 0 0 2 0v-7h2a1 1 0 0 0 0-2h-6a1 1 0 0 0 0 2z"/><path d="m55 36h-46v18h46zm-2 16h-42v-14h42z"/><path d="m36.47 16.152-7.177 4.485-1.461-2.192-1.664 1.11 2 3a1 1 0 0 0 1.362.293l8-5z"/><path d="m36.764 4h4.472v2h-4.472z" transform="matrix(.447 -.894 .894 .447 17.087 37.647)"/><path d="m33 2h2v3h-2z"/><path d="m41.919 7.5h3.162v2h-3.162z" transform="matrix(.949 -.316 .316 .949 -.455 14.199)"/><path d="m9 56h2v2h-2z"/></svg>